<svg width="24" height="24" viewBox="0 0 24 24" fill="none" xmlns="http://www.w3.org/2000/svg">
<path d="M18 0L0 18L0 22.7929C0 23.2383 0.53857 23.4614 0.853552 23.1464L7.58579 16.4142C8.36683 15.6332 9.63316 15.6332 10.4142 16.4142L18 24H22.7929C23.2383 24 23.4614 23.4614 23.1464 23.1464L13.4142 13.4142C12.6332 12.6332 12.6332 11.3668 13.4142 10.5858L23.1464 0.853553C23.4614 0.538571 23.2383 0 22.7929 0L18 0Z" fill="black"/>
<path d="M11.7929 0L2 0C0.895431 0 0 0.89543 0 2L0 11.7929C0 12.2383 0.538572 12.4614 0.853554 12.1464L12.1464 0.853553C12.4614 0.538571 12.2383 0 11.7929 0Z" fill="black"/>
<path d="M8.29289 20.7071L5.85355 23.1464C5.53857 23.4614 5.76165 24 6.20711 24H11.7929C12.2383 24 12.4614 23.4614 12.1464 23.1464L9.70711 20.7071C9.31658 20.3166 8.68342 20.3166 8.29289 20.7071Z" fill="#E73232"/>
</svg>
